<?xml version="1.0" standalone="no"?><!DOCTYPE svg PUBLIC "-//W3C//DTD SVG 20010904//EN"
 "http://www.w3.org/TR/2001/REC-SVG-20010904/DTD/svg10.dtd"><svg version="1.0" xmlns="http://www.w3.org/2000/svg" width="32.000000pt" height="32.000000pt" viewBox="0 0 32.000000 32.000000" preserveAspectRatio="xMidYMid meet"><g transform="translate(0.000000,32.000000) scale(0.100000,-0.100000)" fill="#000000" stroke="none"><path d="M103 209 c-10 -16 -23 -29 -29 -29 -6 0 -18 -8 -25 -17 -13 -16 -12
-17 3 -4 15 11 19 11 24 -4 5 -12 11 -6 26 27 l19 43 19 -22 c16 -20 18 -21
22 -5 3 12 -3 22 -18 29 -21 10 -26 8 -41 -18z"/><path d="M205 190 c-4 -6 -11 -8 -16 -4 -6 3 -5 -3 3 -15 17 -28 25 -27 30 4
5 25 -5 34 -17 15z"/><path d="M113 106 c-65 -14 -83 -31 -23 -22 34 6 41 5 30 -4 -13 -9 -12 -10 5
-6 11 2 53 10 94 16 49 8 69 15 60 21 -18 11 -101 9 -166 -5z m64 -12 c-3 -3
-12 -4 -19 -1 -8 3 -5 6 6 6 11 1 17 -2 13 -5z"/></g></svg>